<?xml version="1.0" encoding="UTF-8"?>
<svg id="Layer_1" xmlns="http://www.w3.org/2000/svg" viewBox="0 0 230.1 79.65">
  <defs>
    <style>
      .cls-1 {
        fill: #ffc811;
      }

      .cls-2 {
        fill: #e9af29;
      }

      .cls-3 {
        fill: #b4812c;
      }
    </style>
  </defs>
  <path class="cls-1" d="M0,22.7C0,36.14,51.51,48.67,115.05,48.67s115.05-12.54,115.05-25.97S178.59,0,115.05,0,0,9.26,0,22.7h0Z"/>
  <path class="cls-2" d="M115.05,48.67C51.51,48.67,0,35.56,0,22.12v30.96c.04,13.43,51.53,26.57,115.05,26.57s115.01-13.13,115.05-26.57v-30.96c0,13.44-51.51,26.55-115.05,26.55Z"/>
  <path class="cls-3" d="M17.7,35.72v30.95c2.69.99,5.64,1.95,8.85,2.86v-30.96c-3.21-.91-6.16-1.87-8.85-2.85Z"/>
  <path class="cls-3" d="M203.55,38.58v30.96c3.21-.91,6.16-1.87,8.85-2.86v-30.95c-2.69.99-5.64,1.94-8.85,2.85Z"/>
  <path class="cls-3" d="M39.83,41.79v30.96c2.83.59,5.78,1.15,8.85,1.67v-30.96c-3.07-.53-6.02-1.08-8.85-1.67Z"/>
  <path class="cls-3" d="M181.43,43.46v30.97c3.07-.53,6.02-1.09,8.85-1.68v-30.96c-2.83.59-5.78,1.15-8.85,1.67h0Z"/>
  <path class="cls-3" d="M61.95,45.44v30.97c2.89.37,5.83.72,8.85,1.03v-30.97c-3.02-.31-5.96-.66-8.85-1.03Z"/>
  <path class="cls-3" d="M159.3,46.47v30.97c3.02-.31,5.97-.66,8.85-1.03v-30.97c-2.88.38-5.83.72-8.85,1.03Z"/>
  <path class="cls-3" d="M84.08,47.6v30.97c2.91.2,5.85.39,8.85.53v-30.98c-3-.15-5.94-.32-8.85-.53h0Z"/>
  <path class="cls-3" d="M137.18,48.13v30.98c3-.15,5.94-.33,8.85-.53v-30.97c-2.91.2-5.85.38-8.85.53h0Z"/>
  <path class="cls-3" d="M115.05,48.67c-1.48,0-2.96-.01-4.42-.03v30.98c1.47.01,2.94.03,4.42.03s2.96-.01,4.42-.03v-30.98c-1.47.01-2.94.03-4.42.03Z"/>
</svg>