<?xml version="1.0" encoding="UTF-8"?>
<svg width="512pt" height="512pt" version="1.1" viewBox="0 0 512 512" xmlns="http://www.w3.org/2000/svg">
 <path d="m256 140.12c-30.73 0-60.207 12.207-81.938 33.938s-33.938 51.207-33.938 81.938c0 30.734 12.207 60.207 33.938 81.938s51.207 33.938 81.938 33.938c30.734 0 60.207-12.207 81.938-33.938s33.938-51.203 33.938-81.938c0-30.73-12.207-60.207-33.938-81.938s-51.203-33.938-81.938-33.938zm0 56.551c15.734 0 30.824 6.25 41.949 17.375 11.129 11.125 17.379 26.215 17.375 41.949 0.003906 15.734-6.2461 30.824-17.375 41.949-11.125 11.129-26.215 17.379-41.949 17.375-15.734 0.003906-30.824-6.2461-41.949-17.375-11.125-11.125-17.375-26.215-17.375-41.949s6.25-30.824 17.375-41.949 26.215-17.375 41.949-17.375z"/>
</svg>
