<?xml version="1.0" encoding="UTF-8"?>
<svg id="Layer_1" xmlns="http://www.w3.org/2000/svg" xmlns:xlink="http://www.w3.org/1999/xlink" viewBox="0 0 479 479">
  <defs>
    <style>
      .cls-1 {
        fill: none;
      }

      .cls-2 {
        mask: url(#mask);
      }

      .cls-3 {
        fill: #fed4a1;
      }

      .cls-4 {
        fill: #f3af55;
      }

      .cls-5 {
        fill: #e5a753;
      }

      .cls-6 {
        fill: rgba(255, 255, 255, 0);
      }

      .cls-7 {
        fill: #fbb86c;
      }

      .cls-8 {
        fill: #d29da1;
      }

      .cls-9 {
        fill: #70757c;
      }

      .cls-10 {
        clip-path: url(#clippath-1);
      }

      .cls-11 {
        fill: #fff;
      }

      .cls-12 {
        opacity: .3;
      }

      .cls-13 {
        clip-path: url(#clippath);
      }

      .cls-14 {
        fill: #fdc47d;
      }

      .cls-15 {
        fill: #dfb8b9;
      }
    </style>
    <clipPath id="clippath">
      <rect class="cls-1" width="479" height="479"/>
    </clipPath>
    <clipPath id="clippath-1">
      <rect class="cls-1" width="479" height="479"/>
    </clipPath>
    <mask id="mask" x="0" y="0" width="479" height="479" maskUnits="userSpaceOnUse">
      <g id="__lottie_element_34_2">
        <rect class="cls-6" width="479" height="479"/>
      </g>
    </mask>
  </defs>
  <g class="cls-13">
    <g class="cls-10">
      <g>
        <g>
          <path class="cls-15" d="M404.2,188.36c-1.89-12.85-7.71-17.27-16.55-19.94-8.45-2.56-17.27-2.06-26.72,5.34-5.92,4.64-9.91,12.34-12.06,17.44-24.39-24-62.21-39.44-104.7-39.44-25.59,0-45.87,3.93-66.17,13.63-4.55-2.16-8.53-3.87-18.78-8.29-20.74-8.94-28.94-12.35-39.63-11.92-11.96.48-8.51,14.64-.82,34.12,2.64,6.68,7.08,13.61,11.92,20.56-5.56,7.51-12.06,19.43-15.05,27.97-1.51-.27-3.08-.43-4.68-.43-13.39,0-24.26,15.06-24.26,27.55v17.27c0,12.49,10.86,25.08,24.26,25.08,3.84,0,7.45-.65,10.67-1.84,9.47,17.17,24.79,31.94,44,42.82l.42,13.28c0,13.39,1.7,25.49,14.87,25.49l15.79-.15c12.11,0,11.83-10.46,11.71-22.55,11.38,2.45,23.36,3.79,35.75,3.79,15.58,0,30.52-2.09,44.42-5.9v.02c0,13.39.45,24.79,13.62,24.79l15.8-.15c13.17,0,14.33-8.62,17.85-25.75l2.95-23.59c23.84-18.65,38.57-44.3,38.57-72.61,0-20.03-7.39-38.72-20.14-54.54,2.59-6.16,6.22-13.96,9.04-16.79,4.93-4.93,9.05-6.57,18.09-5.85,9.04.73,11.53,7.53,11.84,13.25.39,7.26.08,10.27-5.26,15.82-5.28,5.48-12.74,1.85-15.62-1.44-2.88-3.29,6.99-11.92,6.17-17.27-.82-5.35-6.32-6.39-10.28-1.23-4.08,5.3-6.35,11.18-6.58,14.8-.33,5.19,1.09,9.34,7.81,13.57,7.2,4.52,16.9,2.94,21.79,0,7.19-4.32,12.02-12.95,9.97-26.93Z"/>
          <path class="cls-8" d="M375.85,244.39s13.51,48.71-36.78,89.57l-2.71,16.19c-3.53,17.13-4.68,25.75-17.86,25.75l-15.79.15c-13.17,0-13.62-11.4-13.62-24.79v-.02c-12.37,6.29-28.84,9.6-44.41,9.6-12.39,0-25.93-.85-35.75-7.49.13,12.09.4,22.55-11.71,22.55l-15.8.15c-13.17,0-14.87-12.1-14.87-25.49l-.66-5.88c-19.21-10.89-34.53-25.65-44-42.82-3.22,1.19-6.84,2-10.67,1.84-24.26-1.03-24.25-28.16-24.25-28.16,15.93,34.84,36.06,15.88,37.83,18.15,56.94,87.28,232.09,87.28,251.05-49.29Z"/>
          <path class="cls-8" d="M202.28,170.19c-.78.83-1.19,1.93-1.01,3.06.34,2.07,2.52,3.44,4.87,3.06.57-.09,1.1-.28,1.57-.55,12.55-4.03,50.67-8.55,67.65-.93.48.34,1.08.69,1.9,1.1,2.14,1.05,4.56.1,5.3-1.86.48-1.29.07-2.7-1.11-3.85l-.77-.64c-.48-.34-1.03-.65-1.67-.9-.06-.02-.09-.03-.15-.05-18.14-8.62-61.8-5.66-74.62.35-.63.2-1.19.51-1.65.91"/>
          <g class="cls-12">
            <path class="cls-11" d="M333.11,196.1c7.02,7.36,9,16.85,4.44,21.2-4.56,4.35-13.94,1.9-20.96-5.46-7.02-7.36-9-16.85-4.44-21.2,4.56-4.35,13.95-1.9,20.96,5.46Z"/>
          </g>
          <g class="cls-12">
            <path class="cls-11" d="M335.01,227.11c3.4,2.81,4.59,7,2.64,9.36-1.95,2.36-6.28,1.99-9.69-.82-3.41-2.81-4.59-7-2.64-9.36,1.94-2.36,6.28-1.99,9.69.82Z"/>
          </g>
          <path class="cls-9" d="M159.06,226.23c0,4.06-2.48,7.35-5.55,7.35s-5.55-3.29-5.55-7.35,2.48-7.35,5.55-7.35,5.55,3.29,5.55,7.35Z"/>
        </g>
        <g class="cls-2">
          <g>
            <path class="cls-5" d="M280.42,147.45c-.04,20.97-15.66,37.94-34.88,37.9-19.22-.04-34.77-17.06-34.73-38.03.04-20.97,15.66-37.94,34.88-37.9,19.22.04,34.77,17.06,34.73,38.03Z"/>
            <path class="cls-3" d="M271.31,147.43c-.03,16.09-12.01,29.11-26.76,29.08-14.75-.03-26.68-13.1-26.65-29.19.03-16.09,12.01-29.11,26.76-29.08,14.75.03,26.69,13.09,26.65,29.18Z"/>
            <path class="cls-7" d="M275.11,139.85l.46,3.02h4.6l-.44-3.02h-4.63Z"/>
            <path class="cls-7" d="M266.15,121.11l2.39,3.02h4.6l-2.47-3.11-4.53.09Z"/>
            <path class="cls-7" d="M273.59,160.76l-1.19,3.02h4.61l1.19-3.02h-4.61Z"/>
            <path class="cls-7" d="M275.73,144.63l.07,1.38h4.6l-.07-1.38h-4.6Z"/>
            <path class="cls-7" d="M269.67,125.81l.83,1.38h4.6l-.83-1.38h-4.6Z"/>
            <path class="cls-7" d="M271.52,165.65l-.89,1.66h4.67l.83-1.66h-4.61Z"/>
            <path class="cls-7" d="M264.6,175.13l-1.77,1.39h5.09l1.44-1.39h-4.76Z"/>
            <path class="cls-7" d="M251.82,183.41l-2.19.7,4.75.02,2.25-.73h-4.8Z"/>
            <path class="cls-7" d="M274.61,137.44l.18.76h4.61l-.23-.76h-4.55Z"/>
            <path class="cls-7" d="M263.97,118.84l.77.76h4.6l-.77-.76h-4.6Z"/>
            <path class="cls-7" d="M255.68,113.1l2.27,1.11,4.31-.18-1.98-1.09-4.6.16Z"/>
            <path class="cls-7" d="M274.13,158.33v.76l4.61-.03.21-.72h-4.82Z"/>
            <path class="cls-7" d="M261.06,178.12l-1.1.97h4.9s1.18-.97,1.18-.97h-4.98Z"/>
            <path class="cls-14" d="M275.82,147.45c-.04,20.97-15.66,37.94-34.88,37.9-19.22-.04-34.77-17.06-34.73-38.03.04-20.97,15.66-37.94,34.88-37.9,19.22.04,34.77,17.06,34.73,38.03Z"/>
            <path class="cls-4" d="M267.72,147.43c-.03,16.09-12.01,29.11-26.76,29.08-14.75-.03-26.68-13.1-26.65-29.19.03-16.09,12.01-29.11,26.76-29.08,14.75.03,26.69,13.09,26.65,29.18Z"/>
            <path class="cls-5" d="M241.01,118.25c-14.75-.03-26.73,12.99-26.76,29.08-.03,16.09,11.9,29.16,26.65,29.18,0,0-24.34-4.98-24.17-29.28.17-23.8,24.28-28.98,24.28-28.98Z"/>
            <path class="cls-5" d="M246.84,133.5v30.8h-7.15v-16.06c0-2.32-.05-3.71-.16-4.18-.11-.47-.4-.82-.88-1.06-.48-.24-1.54-.36-3.19-.36h-1.54v-3.49c3.46-.78,6.08-3.22,7.88-5.64h5.05Z"/>
            <path class="cls-5" d="M245.79,134.52v29.78h-7.15v-15.04c0-2.32-.05-3.71-.16-4.18-.11-.47-.4-.82-.88-1.06-.48-.24-1.54-.36-3.19-.36h-1.54v-3.49c3.46-.78,6.08-3.22,7.88-5.64h5.05Z"/>
            <path class="cls-14" d="M245.79,133.5v30.8h-7.15v-16.06c0-2.32-.05-3.71-.16-4.18-.11-.47-.4-.82-.88-1.06-.48-.24-1.54-.36-3.19-.36h-1.54v-3.49c3.46-.78,6.08-3.22,7.88-5.64h5.05Z"/>
          </g>
        </g>
      </g>
    </g>
  </g>
</svg>