<?xml version="1.0" encoding="UTF-8"?>
<svg xmlns="http://www.w3.org/2000/svg" xmlns:xlink="http://www.w3.org/1999/xlink" version="1.1" viewBox="0 0 479 479">
  <defs>
    <style>
      .cls-1 {
        fill: none;
      }

      .cls-2 {
        fill: #fed4a1;
      }

      .cls-3 {
        fill: #f3af55;
      }

      .cls-4 {
        fill: #70757c;
      }

      .cls-5 {
        fill: #d29da1;
      }

      .cls-6 {
        fill: #e5a753;
      }

      .cls-7 {
        clip-path: url(#clippath-1);
      }

      .cls-8 {
        fill: #fbb86c;
      }

      .cls-9 {
        fill: #fff;
      }

      .cls-10 {
        opacity: .3;
      }

      .cls-11 {
        clip-path: url(#clippath);
      }

      .cls-12 {
        fill: #dfb8b9;
      }

      .cls-13 {
        fill: #fdc47d;
      }
    </style>
    <clipPath id="clippath">
      <rect class="cls-1" y="0" width="479" height="479"/>
    </clipPath>
    <clipPath id="clippath-1">
      <rect class="cls-1" x="-12" y="-14.4" width="479" height="479"/>
    </clipPath>
  </defs>
  <!-- Generator: Adobe Illustrator 28.6.0, SVG Export Plug-In . SVG Version: 1.2.0 Build 709)  -->
  <g>
    <g id="Layer_1">
      <g class="cls-11">
        <g class="cls-7">
          <g>
            <g>
              <path class="cls-12" d="M392.2,173.9c-1.9-12.9-7.7-17.3-16.5-19.9-8.5-2.6-17.3-2.1-26.7,5.3-5.9,4.6-9.9,12.3-12.1,17.4-24.4-24-62.2-39.4-104.7-39.4s-45.9,3.9-66.2,13.6c-4.6-2.2-8.5-3.9-18.8-8.3-20.7-8.9-28.9-12.4-39.6-11.9-12,.5-8.5,14.6-.8,34.1,2.6,6.7,7.1,13.6,11.9,20.6-5.6,7.5-12.1,19.4-15.1,28-1.5-.3-3.1-.4-4.7-.4-13.4,0-24.3,15.1-24.3,27.6v17.3c0,12.5,10.9,25.1,24.3,25.1s7.4-.6,10.7-1.8c9.5,17.2,24.8,31.9,44,42.8l.4,13.3c0,13.4,1.7,25.5,14.9,25.5h15.8c12.1-.1,11.8-10.6,11.7-22.7,11.4,2.5,23.4,3.8,35.8,3.8s30.5-2.1,44.4-5.9h0c0,13.4.5,24.8,13.6,24.8h15.8c13.2-.1,14.3-8.8,17.9-25.9l3-23.6c23.8-18.6,38.6-44.3,38.6-72.6s-7.4-38.7-20.1-54.5c2.6-6.2,6.2-14,9-16.8,4.9-4.9,9-6.6,18.1-5.9,9,.7,11.5,7.5,11.8,13.2.4,7.3,0,10.3-5.3,15.8-5.3,5.5-12.7,1.9-15.6-1.4-2.9-3.3,7-11.9,6.2-17.3-.8-5.4-6.3-6.4-10.3-1.2-4.1,5.3-6.4,11.2-6.6,14.8-.3,5.2,1.1,9.3,7.8,13.6,7.2,4.5,16.9,2.9,21.8,0,7.2-4.3,12-12.9,10-26.9h0Z"/>
              <path class="cls-5" d="M363.9,230s13.5,48.7-36.8,89.6l-2.7,16.2c-3.5,17.1-4.7,25.8-17.9,25.8h-15.8c-13.2.1-13.6-11.2-13.6-24.6h0c-12.4,6.3-28.8,9.6-44.4,9.6s-25.9-.9-35.8-7.5c.1,12.1.4,22.5-11.7,22.5h-15.8c-13.2.1-14.9-12-14.9-25.3l-.7-5.9c-19.2-10.9-34.5-25.6-44-42.8-3.2,1.2-6.8,2-10.7,1.8-24.3-1-24.2-28.2-24.2-28.2,15.9,34.8,36.1,15.9,37.8,18.1,56.9,87.3,232.1,87.3,251-49.3h0Z"/>
              <path class="cls-5" d="M201,156.9c-.8.8-1.2,1.9-1,3.1.3,2.1,2.5,3.4,4.9,3.1.6,0,1.1-.3,1.6-.6,12.6-4,50.7-8.6,67.7-.9.5.3,1.1.7,1.9,1.1,2.1,1.1,4.6.1,5.3-1.9.5-1.3,0-2.7-1.1-3.9l-.8-.6c-.5-.3-1-.6-1.7-.9,0,0,0,0-.1,0-18.1-8.6-61.8-5.7-74.6.4-.6.2-1.2.5-1.6.9"/>
              <g class="cls-10">
                <path class="cls-9" d="M321.1,181.7c7,7.4,9,16.9,4.4,21.2-4.6,4.4-13.9,1.9-21-5.5s-9-16.9-4.4-21.2c4.6-4.4,14-1.9,21,5.5Z"/>
              </g>
              <g class="cls-10">
                <path class="cls-9" d="M323,212.7c3.4,2.8,4.6,7,2.6,9.4-2,2.4-6.3,2-9.7-.8-3.4-2.8-4.6-7-2.6-9.4,1.9-2.4,6.3-2,9.7.8Z"/>
              </g>
              <path class="cls-4" d="M147.1,211.8c0,4.1-2.5,7.4-5.6,7.4s-5.6-3.3-5.6-7.4,2.5-7.4,5.6-7.4,5.6,3.3,5.6,7.4Z"/>
            </g>
            <g>
              <path class="cls-6" d="M278.8,119.2c0,21-15.7,37.9-34.9,37.9s-34.8-17.1-34.7-38c0-21,15.7-37.9,34.9-37.9,19.2,0,34.8,17.1,34.7,38h0Z"/>
              <path class="cls-2" d="M269.7,119.1c0,16.1-12,29.1-26.8,29.1-14.8,0-26.7-13.1-26.6-29.2,0-16.1,12-29.1,26.8-29.1s26.7,13.1,26.6,29.2h0Z"/>
              <path class="cls-8" d="M273.5,111.6l.5,3h4.6l-.4-3h-4.6,0Z"/>
              <path class="cls-8" d="M264.5,92.8l2.4,3h4.6l-2.5-3.1h-4.5c0,0,0,0,0,0Z"/>
              <path class="cls-8" d="M272,132.5l-1.2,3h4.6l1.2-3h-4.6Z"/>
              <path class="cls-8" d="M274.1,116.3v1.4h4.7v-1.4h-4.7Z"/>
              <path class="cls-8" d="M268,97.5l.8,1.4h4.6l-.8-1.4h-4.6Z"/>
              <path class="cls-8" d="M269.9,137.4l-.9,1.7h4.7l.8-1.7h-4.6Z"/>
              <path class="cls-8" d="M263,146.8l-1.8,1.4h5.1l1.4-1.4h-4.8Z"/>
              <path class="cls-8" d="M250.2,155.1l-2.2.7h4.8s2.2-.7,2.2-.7h-4.8Z"/>
              <path class="cls-8" d="M273,109.1l.2.8h4.6l-.2-.8h-4.6Z"/>
              <path class="cls-8" d="M262.3,90.5l.8.8h4.6l-.8-.8h-4.6Z"/>
              <path class="cls-8" d="M254,84.8l2.3,1.1,4.3-.2-2-1.1-4.6.2h0Z"/>
              <path class="cls-8" d="M272.5,130v.8h4.6s.2-.8.2-.8h-4.8,0Z"/>
              <path class="cls-8" d="M259.4,149.8l-1.1,1h4.9l1.2-1h-5,0Z"/>
              <path class="cls-13" d="M274.2,119.2c0,21-15.7,37.9-34.9,37.9s-34.8-17.1-34.7-38c0-21,15.7-37.9,34.9-37.9,19.2,0,34.8,17.1,34.7,38h0Z"/>
              <path class="cls-3" d="M266.1,119.1c0,16.1-12,29.1-26.8,29.1s-26.7-13.1-26.6-29.2c0-16.1,12-29.1,26.8-29.1s26.7,13.1,26.6,29.2h0Z"/>
              <path class="cls-6" d="M239.4,90c-14.8,0-26.7,13-26.8,29.1s11.9,29.2,26.6,29.2c0,0-24.3-5-24.2-29.3.2-23.8,24.3-29,24.3-29h0Z"/>
              <path class="cls-6" d="M245.2,105.2v30.8h-7.1v-16.1c0-2.3,0-3.7-.2-4.2-.1-.5-.4-.8-.9-1.1-.5-.2-1.5-.4-3.2-.4h-1.5v-3.5c3.5-.8,6.1-3.2,7.9-5.6h5.1,0Z"/>
              <path class="cls-6" d="M244.2,106.2v29.8h-7.1v-15c0-2.3,0-3.7-.2-4.2-.1-.5-.4-.8-.9-1.1-.5-.2-1.5-.4-3.2-.4h-1.5v-3.5c3.5-.8,6.1-3.2,7.9-5.6h5.1,0Z"/>
              <path class="cls-13" d="M244.2,105.2v30.8h-7.1v-16.1c0-2.3,0-3.7-.2-4.2-.1-.5-.4-.8-.9-1.1-.5-.2-1.5-.4-3.2-.4h-1.5v-3.5c3.5-.8,6.1-3.2,7.9-5.6h5.1,0Z"/>
            </g>
          </g>
        </g>
      </g>
    </g>
  </g>
</svg>